<svg width="23" height="20" fill="#none" xmlns="http://www.w3.org/2000/svg"><mask id="a" fill="#fff"><path d="M1.434 0a1.434 1.434 0 1 0 0 2.867h20.133a1.434 1.434 0 0 0 0-2.867H1.434zm0 8.515a1.434 1.434 0 1 0 0 2.867h20.133a1.434 1.434 0 0 0 0-2.867H1.434zm0 8.601a1.434 1.434 0 1 0 0 2.867h20.133a1.434 1.434 0 0 0 0-2.867H1.434z"/></mask><path d="M1.434 0a1.434 1.434 0 1 0 0 2.867h20.133a1.434 1.434 0 0 0 0-2.867H1.434zm0 8.515a1.434 1.434 0 1 0 0 2.867h20.133a1.434 1.434 0 0 0 0-2.867H1.434zm0 8.601a1.434 1.434 0 1 0 0 2.867h20.133a1.434 1.434 0 0 0 0-2.867H1.434z" fill="#none"/><path d="M1.434 28.55h20.133v-51.366H1.434V28.55zm20.133-54.233H1.434v51.366h20.133v-51.366zM1.434 37.065h20.133V-14.3H1.434v51.366zm20.133-54.233H1.434v51.366h20.133v-51.366zM1.434 45.667h20.133V-5.7H1.434v51.366zM21.567-8.566H1.434V42.8h20.133V-8.566zM48.683 18.55c0-14.976-12.14-27.116-27.116-27.116V42.8c-13.393 0-24.25-10.857-24.25-24.25h51.366zM21.567 45.667c14.975 0 27.116-12.14 27.116-27.117H-2.683c0-13.393 10.857-24.25 24.25-24.25v51.367zm-47.25-27.117c0 14.976 12.14 27.117 27.117 27.117V-5.7c13.392 0 24.249 10.856 24.249 24.25h-51.366zm51.366 0c0 13.393-10.857 24.25-24.25 24.25V-8.566c-14.976 0-27.116 12.14-27.116 27.116h51.366zm23-8.601c0-14.976-12.14-27.117-27.116-27.117v51.366c-13.393 0-24.25-10.857-24.25-24.25h51.366zM21.567 37.065c14.975 0 27.116-12.14 27.116-27.116H-2.683c0-13.393 10.857-24.25 24.25-24.25v51.366zM-25.683 9.95c0 14.976 12.14 27.116 27.117 27.116V-14.3c13.392 0 24.249 10.857 24.249 24.25h-51.366zm51.366 0c0 13.392-10.857 24.25-24.25 24.25v-51.367c-14.976 0-27.116 12.14-27.116 27.117h51.366zm23-8.515c0-14.976-12.14-27.117-27.116-27.117v51.366c-13.393 0-24.25-10.857-24.25-24.25h51.366zM21.567 28.55c14.975 0 27.116-12.14 27.116-27.116H-2.683c0-13.393 10.857-24.25 24.25-24.25V28.55zm-47.25-27.116c0 14.976 12.14 27.116 27.117 27.116v-51.366c13.392 0 24.249 10.857 24.249 24.25h-51.366zm51.366 0c0 13.392-10.857 24.249-24.25 24.249v-51.366c-14.976 0-27.116 12.14-27.116 27.117h51.366z" fill="none" mask="url(#a)"/></svg>